<?xml version="1.0" encoding="iso-8859-1"?>
<!-- Generator: Adobe Illustrator 19.0.0, SVG Export Plug-In . SVG Version: 6.00 Build 0)  -->
<svg version="1.1" id="Capa_1" xmlns="http://www.w3.org/2000/svg" xmlns:xlink="http://www.w3.org/1999/xlink" x="0px" y="0px"
	 viewBox="0 0 56.48 56.48" style="enable-background:new 0 0 56.48 56.48;" xml:space="preserve">
<g>
	<g>
		<path d="M15.051,25.812c-1.058,0-1.869,0.34-1.869,0.34l-0.224,1.33c0,0,0.669-0.272,1.682-0.272c0.575,0,0.995,0.064,0.995,0.531
			c0,0.284-0.051,0.389-0.051,0.389s-0.453-0.037-0.663-0.037c-1.335,0-2.737,0.568-2.737,2.287c0,1.354,0.919,1.663,1.49,1.663
			c1.089,0,1.559-0.706,1.583-0.708l-0.051,0.59h1.359l0.606-4.25C17.17,25.87,15.597,25.812,15.051,25.812z M14.289,30.75
			c-0.479,0-0.604-0.365-0.604-0.583c0-0.422,0.229-0.93,1.36-0.93c0.264,0.001,0.292,0.028,0.336,0.036
			C15.411,29.533,15.219,30.75,14.289,30.75z"/>
	</g>
</g>
<g>
	<g>
		<path d="M19.959,27.237c0.217,0,1.054,0.069,1.054,0.069l0.195-1.362c0,0-0.542-0.121-1.424-0.121c-1.142,0-2.3,0.456-2.3,2.015
			c0,1.768,1.932,1.588,1.932,2.334c0,0.496-0.54,0.537-0.956,0.537c-0.721,0-1.369-0.246-1.371-0.236l-0.206,1.351
			c0.037,0.01,0.437,0.188,1.732,0.188c0.347,0,2.334,0.09,2.334-1.961c0-1.918-1.839-1.539-1.839-2.31
			C19.11,27.357,19.409,27.237,19.959,27.237z"/>
	</g>
</g>
<g>
	<g>
		<path d="M23.206,27.411h0.817l0.197-1.452h-0.77l0.157-0.9h-1.543c-0.034,0.033-0.911,5.076-0.911,5.688
			c0,0.911,0.511,1.315,1.23,1.308c0.563-0.004,1.002-0.16,1.157-0.203l0.193-1.312c-0.106,0-0.261,0.046-0.398,0.046
			c-0.537,0-0.596-0.287-0.562-0.498L23.206,27.411z"/>
	</g>
</g>
<g>
	<g>
		<path d="M29.673,18.987h-2.754c-0.37,0.5-0.718,1.032-1.033,1.552h4.913C30.458,19.997,30.081,19.479,29.673,18.987z"/>
	</g>
</g>
<g>
	<g>
		<path d="M51.161,36.445c-0.03-0.045-0.055-0.079-0.075-0.1c-0.011-0.01-0.025-0.021-0.043-0.026
			c0.043-0.003,0.079-0.019,0.105-0.046c0.025-0.027,0.039-0.059,0.039-0.096c0-0.026-0.008-0.051-0.023-0.074
			c-0.015-0.023-0.037-0.04-0.064-0.049c-0.025-0.01-0.068-0.015-0.127-0.015h-0.174v0.505h0.082V36.33h0.047
			c0.028,0,0.051,0.006,0.064,0.018c0.021,0.017,0.051,0.056,0.086,0.117l0.044,0.08h0.101L51.161,36.445z M50.979,36.263h-0.1
			v-0.152h0.094c0.039,0,0.065,0.003,0.08,0.009c0.016,0.006,0.026,0.015,0.035,0.026c0.008,0.012,0.012,0.025,0.012,0.039
			c0,0.023-0.008,0.043-0.025,0.057C51.058,36.255,51.025,36.263,50.979,36.263z"/>
	</g>
</g>
<g>
	<g>
		<path d="M31.634,22.062h-6.607c-0.422,0.799-0.702,1.403-0.781,1.553h8.014C32.079,23.081,31.871,22.564,31.634,22.062z"/>
	</g>
</g>
<g>
	<g>
		<polygon points="10.293,24.583 8.772,29.093 8.693,24.583 6.441,24.583 5.207,31.932 6.696,31.932 7.635,26.392 7.773,31.932 
			8.836,31.932 10.819,26.392 9.94,31.932 11.52,31.932 12.737,24.583 		"/>
	</g>
</g>
<g>
	<g>
		<path d="M40.069,25.812c-1.06,0-1.87,0.34-1.87,0.34l-0.225,1.33c0,0,0.67-0.272,1.682-0.272c0.575,0,0.996,0.064,0.996,0.531
			c0,0.284-0.053,0.389-0.053,0.389s-0.452-0.037-0.664-0.037c-1.334,0-2.735,0.568-2.735,2.287c0,1.354,0.92,1.663,1.49,1.663
			c1.088,0,1.558-0.706,1.583-0.708l-0.051,0.59h1.358l0.606-4.25C42.189,25.87,40.615,25.812,40.069,25.812z M39.309,30.75
			c-0.48,0-0.604-0.365-0.604-0.583c0-0.422,0.229-0.93,1.36-0.93c0.263,0.001,0.291,0.028,0.336,0.036
			C40.43,29.533,40.237,30.75,39.309,30.75z"/>
	</g>
</g>
<g>
	<g>
		<path d="M51.21,31.255c-0.041-0.076-0.101-0.134-0.176-0.174c-0.074-0.041-0.15-0.061-0.23-0.061
			c-0.077,0.001-0.154,0.021-0.23,0.061c-0.075,0.04-0.133,0.098-0.175,0.174c-0.042,0.075-0.063,0.153-0.063,0.234
			s0.021,0.158,0.063,0.232c0.041,0.074,0.099,0.133,0.173,0.175c0.075,0.041,0.152,0.062,0.232,0.062
			c0.082,0,0.16-0.021,0.233-0.062c0.074-0.042,0.132-0.101,0.173-0.175c0.043-0.074,0.062-0.151,0.062-0.232
			C51.272,31.406,51.252,31.328,51.21,31.255z M51.145,31.682c-0.034,0.062-0.082,0.109-0.145,0.146
			c-0.062,0.034-0.126,0.052-0.193,0.052c-0.068,0-0.133-0.018-0.194-0.052c-0.063-0.035-0.11-0.083-0.146-0.146
			c-0.036-0.063-0.052-0.127-0.052-0.194c0-0.067,0.017-0.132,0.054-0.195c0.035-0.062,0.082-0.11,0.146-0.145
			c0.064-0.035,0.127-0.05,0.192-0.05s0.129,0.016,0.19,0.05c0.064,0.035,0.111,0.082,0.146,0.145
			c0.035,0.063,0.054,0.128,0.054,0.195C51.197,31.555,51.18,31.62,51.145,31.682z"/>
	</g>
</g>
<g>
	<g>
		<path d="M50.963,31.648c-0.029-0.047-0.055-0.08-0.074-0.1c-0.012-0.011-0.025-0.02-0.043-0.026
			c0.043-0.003,0.078-0.019,0.104-0.046c0.025-0.026,0.04-0.06,0.04-0.096c0-0.025-0.008-0.051-0.024-0.074
			c-0.016-0.022-0.037-0.039-0.062-0.049c-0.025-0.01-0.069-0.015-0.128-0.015H50.6v0.504h0.082v-0.214h0.047
			c0.029,0,0.052,0.006,0.066,0.017c0.021,0.018,0.049,0.056,0.086,0.119l0.043,0.079h0.101L50.963,31.648z M50.783,31.463h-0.099
			V31.31h0.092c0.04,0,0.066,0.003,0.082,0.008c0.013,0.007,0.025,0.014,0.033,0.027c0.009,0.013,0.013,0.024,0.013,0.041
			c0,0.022-0.009,0.041-0.024,0.055C50.861,31.458,50.83,31.463,50.783,31.463z"/>
	</g>
</g>
<g>
	<g>
		<path d="M45.313,25.885c-0.691,0-1.204,0.943-1.204,0.943l0.138-0.867h-1.438l-0.963,5.982h1.584
			c0.451-2.556,0.533-4.629,1.604-4.25c0.189-0.988,0.371-1.371,0.576-1.788C45.61,25.906,45.514,25.885,45.313,25.885z"/>
	</g>
</g>
<g>
	<g>
		<path d="M49.293,24.591l-0.333,2.065c0,0-0.58-0.803-1.49-0.803c-1.415,0.001-2.593,1.706-2.593,3.664
			c0,1.265,0.629,2.504,1.913,2.504c0.925,0,1.437-0.645,1.437-0.645l-0.067,0.551h1.501l1.18-7.339L49.293,24.591z M47.336,30.521
			c-0.556,0-0.816-0.466-0.816-1.198c0-1.197,0.537-1.986,1.216-1.986c0.554,0.001,0.839,0.382,0.839,1.28
			C48.575,29.432,48.172,30.521,47.336,30.521z"/>
	</g>
</g>
<g>
	<g>
		<path d="M55.026,9.939H1.454C0.65,9.939,0,10.59,0,11.393v33.695c0,0.803,0.65,1.454,1.454,1.454h53.572
			c0.804,0,1.454-0.651,1.454-1.454V11.393C56.48,10.59,55.83,9.939,55.026,9.939z M51.409,36.518
			c-0.042,0.076-0.099,0.134-0.173,0.175c-0.074,0.041-0.152,0.062-0.232,0.062c-0.082,0-0.16-0.021-0.234-0.062
			c-0.073-0.041-0.131-0.099-0.174-0.175c-0.041-0.073-0.062-0.151-0.062-0.232s0.021-0.158,0.063-0.234
			c0.041-0.076,0.101-0.133,0.175-0.174c0.075-0.039,0.151-0.06,0.231-0.06c0.079,0,0.155,0.021,0.229,0.06
			c0.075,0.041,0.134,0.098,0.175,0.174c0.042,0.076,0.062,0.154,0.062,0.234S51.451,36.447,51.409,36.518z M52.457,28.241
			c0.002,8.005-6.484,14.497-14.49,14.499c-3.744,0.001-7.158-1.418-9.73-3.749c-2.572,2.327-5.979,3.745-9.717,3.745
			c-8.001,0-14.495-6.493-14.495-14.495c0-7.97,6.443-14.444,14.402-14.496c0.031,0,0.062,0,0.093,0
			c3.738,0,7.146,1.418,9.718,3.745c2.571-2.328,5.981-3.747,9.722-3.748c8.006-0.003,14.497,6.486,14.499,14.492
			C52.457,28.236,52.457,28.237,52.457,28.241z"/>
	</g>
</g>
<g>
	<g>
		<path d="M26.753,37.406c0.459,0.562,0.945,1.098,1.482,1.584c0.012-0.011,0.025-0.021,0.037-0.031c0,0-0.001,0-0.001-0.001h0.003
			c0.528-0.481,1.021-0.999,1.472-1.552H26.753z"/>
	</g>
</g>
<g>
	<g>
		<path d="M28.727,29.45c0,0,0.203-1,0.203-1.407c0-1.017-0.506-2.257-2.2-2.257c-1.552,0.001-2.701,1.673-2.701,3.563
			c0,2.181,1.439,2.699,2.666,2.699c1.132,0,1.63-0.254,1.63-0.254l0.272-1.488c0,0-0.861,0.38-1.639,0.38
			c-1.657,0-1.367-1.236-1.367-1.236H28.727z M26.735,27.171c0.871,0,0.71,0.979,0.71,1.057h-1.713
			C25.732,28.127,25.894,27.171,26.735,27.171z"/>
	</g>
</g>
<g>
	<g>
		<path d="M35.965,25.991c0.785,0,1.416,0.441,1.416,0.441l0.252-1.635c0,0-0.934-0.378-1.738-0.378
			c-1.781,0-3.514,1.546-3.514,4.449c0,1.925,0.935,3.196,2.777,3.196c0.52,0,1.35-0.211,1.35-0.211l0.276-1.684
			c0,0-0.756,0.379-1.276,0.379c-1.096-0.001-1.535-0.837-1.535-1.733C33.973,26.992,34.915,25.991,35.965,25.991z"/>
	</g>
</g>
<g>
	<g>
		<path d="M24.818,34.361c0.251,0.539,0.543,1.052,0.856,1.552h5.143c0.312-0.498,0.593-1.016,0.844-1.552H24.818z"/>
	</g>
</g>
<g>
	<g>
		<path d="M32.353,25.887c-0.691,0-1.203,0.943-1.203,0.943l0.139-0.867h-1.437l-0.963,5.982h1.584
			c0.449-2.555,0.533-4.629,1.604-4.25c0.188-0.989,0.369-1.372,0.574-1.79C32.651,25.905,32.555,25.885,32.353,25.887z"/>
	</g>
</g>
<g>
</g>
<g>
</g>
<g>
</g>
<g>
</g>
<g>
</g>
<g>
</g>
<g>
</g>
<g>
</g>
<g>
</g>
<g>
</g>
<g>
</g>
<g>
</g>
<g>
</g>
<g>
</g>
<g>
</g>
</svg>
